<svg width="500" height="500" viewBox="0 0 500 500" fill="none" xmlns="http://www.w3.org/2000/svg">
<path fill-rule="evenodd" clip-rule="evenodd" d="M221.869 1.59841C124.618 12.6899 42.2536 79.9154 12.5729 172.426C4.99642 196.038 0.0250464 226.54 4.57553e-05 249.555C-0.0137046 262.959 3.07387 289.384 6.36145 303.981C27.6907 398.693 101.579 472.536 195.782 493.286C210.449 496.517 236.571 499.588 249.37 499.587C271.769 499.586 302.783 494.716 325.401 487.649C401.194 463.967 463.135 402.465 487.417 326.783C494.97 303.243 500.003 272.624 500 250.237C499.996 228.282 494.987 196.436 488.04 174.199C466.934 106.652 415.647 49.5934 350.299 20.9601C310.068 3.33095 265.537 -3.38172 221.869 1.59841ZM216.1 182.178C230.192 185.427 242.026 194.236 246.954 205.145C252.449 217.314 252.224 224.888 245.462 255.23C237.096 292.778 224.048 308.222 195.225 314.697C186.576 316.641 166.767 316.256 158.118 313.976C149.094 311.599 138.375 305.368 134.466 300.231C128.069 291.823 126.974 288.284 126.919 275.855C126.866 263.797 128.762 252.743 134.48 231.783C142.345 202.947 157.598 187.383 183.118 182.152C190.295 180.68 209.673 180.695 216.1 182.178ZM359.252 185.732C374.181 190.646 383.748 202.767 383.748 216.77C383.748 226.815 376.749 244.518 369.726 252.241C358.745 264.314 349.593 267.293 321.179 268.044L299.235 268.624L294.994 289.362C292.142 303.302 290.014 310.839 288.499 312.354C286.592 314.26 284.06 314.606 272.023 314.606C261.339 314.606 257.439 314.17 256.345 312.851C254.999 311.229 259.853 286.572 280.183 191.772C282.388 181.489 281.033 181.825 318.004 182.392C347.771 182.848 351.376 183.14 359.252 185.732ZM184.411 211.82C176.206 216.326 172.078 223.256 168.234 238.979C160.085 272.311 160.43 281.535 170.007 286.488C175.006 289.073 185.772 288.798 192.104 285.924C202.025 281.419 206.848 271.421 212.43 243.783C216.67 222.784 215.438 214.336 207.535 210.25C201.608 207.185 191.617 207.864 184.411 211.82ZM309.985 216.791C309.194 220.744 307.748 227.529 306.771 231.869C305.795 236.209 304.996 240.348 304.996 241.067C304.996 243.306 332.398 241.762 337.086 239.259C342.929 236.139 346.327 230.577 347.127 222.828C347.755 216.743 347.502 215.745 344.594 212.836C341.477 209.72 340.825 209.604 326.392 209.604H311.424L309.985 216.791Z" fill="black"/>
</svg>
