<?xml version="1.0" standalone="no"?>
<!DOCTYPE svg PUBLIC "-//W3C//DTD SVG 20010904//EN"
 "http://www.w3.org/TR/2001/REC-SVG-20010904/DTD/svg10.dtd">
<svg version="1.0" xmlns="http://www.w3.org/2000/svg"
 width="320.000000pt" height="320.000000pt" viewBox="0 0 320.000000 320.000000"
 preserveAspectRatio="xMidYMid meet">
<metadata>
Created by potrace 1.14, written by Peter Selinger 2001-2017
</metadata>
<g transform="translate(0.000000,320.000000) scale(0.100000,-0.100000)"
fill="#000000" stroke="none">
<path d="M1069 3196 c-2 -2 -24 -7 -49 -10 -25 -3 -60 -10 -77 -15 -18 -5 -33
-8 -33 -6 0 9 -177 -58 -245 -92 -119 -59 -206 -123 -310 -228 -145 -144 -231
-283 -295 -473 -54 -163 -59 -218 -59 -772 0 -278 5 -530 10 -560 4 -30 11
-70 14 -89 9 -56 64 -211 100 -284 59 -118 126 -209 230 -313 143 -143 284
-231 471 -293 170 -57 214 -60 804 -57 294 1 549 5 565 9 17 4 53 12 80 19
212 48 405 157 571 323 142 141 233 289 295 476 54 163 58 217 58 769 0 278
-5 530 -10 560 -4 30 -11 70 -14 89 -9 56 -64 211 -100 284 -59 118 -126 209
-230 312 -178 179 -362 279 -610 330 -106 23 -127 23 -636 24 -290 0 -528 -1
-530 -3z"/>
</g>
</svg>
