<svg width="40" height="40" viewBox="0 0 40 40" fill="none" xmlns="http://www.w3.org/2000/svg">
<path d="M20 40C31.0457 40 40 31.0457 40 20C40 8.9543 31.0457 0 20 0C8.9543 0 0 8.9543 0 20C0 31.0457 8.9543 40 20 40Z" fill="#1B1B21"/>
<path d="M20.0069 33.0689C19.8027 33.0689 19.6011 33.0148 19.4243 32.9127L18.9458 32.6364L19.5506 31.5889L20.0071 31.8524L20.4781 31.5805L21.0829 32.6281L20.5898 32.9127C20.4129 33.0148 20.2114 33.0689 20.0071 33.0689H20.0069ZM17.4656 31.7819L15.9856 30.9274L16.5905 29.8798L18.0705 30.7344L17.4656 31.7819ZM22.5629 31.7735L21.9581 30.726L23.4381 29.8714L24.0429 30.919L22.5629 31.7735ZM14.5056 30.0729L13.0256 29.2184L13.6305 28.1708L15.1105 29.0253L14.5056 30.0729ZM25.5231 30.0645L24.9182 29.0169L26.3982 28.1624L27.003 29.21L25.5231 30.0645ZM11.5455 28.3639L10.0655 27.5093L10.6703 26.4618L12.1503 27.3163L11.5455 28.3639ZM28.4832 28.3555L27.8784 27.3079L29.3584 26.4534L29.9632 27.501L28.4832 28.3555ZM8.49676 25.966C8.49644 25.9542 8.49628 25.9423 8.49628 25.9305V24.2385H9.70595V25.9305L8.49676 25.966ZM30.3084 25.9308V24.2218H31.518V25.9305L30.3084 25.931V25.9308ZM9.70595 22.5295H8.49628V20.8205H9.70595V22.5295ZM31.518 22.5127H30.3084V20.8037H31.518V22.5127ZM9.70595 19.1114H8.49628V17.4024H9.70595V19.1114ZM31.518 19.0947H30.3084V17.3856H31.518V19.0947ZM9.70595 15.6934H8.49628V13.9666L8.49724 13.9489L9.08708 13.9835H9.70579V13.9843V15.6934H9.70595ZM31.518 15.6766H30.3084V13.9843V13.9863L31.5176 13.9489C31.5179 13.9606 31.518 13.9726 31.518 13.9843V15.6766ZM10.6561 13.4613L10.0513 12.4137L11.5313 11.5592L12.1361 12.6068L10.6561 13.4613ZM29.3443 13.4532L27.8643 12.5987L28.4692 11.5511L29.9492 12.4056L29.3443 13.4532ZM13.6163 11.7523L13.0114 10.7047L14.4914 9.85016L15.0963 10.8977L13.6163 11.7523ZM26.3842 11.7442L24.9042 10.8897L25.509 9.84209L26.989 10.6966L26.3842 11.7442ZM16.5764 10.0432L15.9716 8.99564L17.4516 8.14112L18.0564 9.1887L16.5764 10.0432ZM23.424 10.0352L21.944 9.18064L22.5489 8.13306L24.0289 8.98757L23.424 10.0352ZM19.5364 8.33419L18.9316 7.28661L19.4243 7.00209C19.6013 6.89999 19.8027 6.84596 20.0071 6.84596C20.2114 6.84596 20.4129 6.89999 20.5897 7.00209L21.0685 7.27854L20.4637 8.32612L20.0069 8.06241L19.5363 8.33419H19.5364Z" fill="white"/>
<path d="M18.9521 20.0974L17.3737 19.1861L17.9785 18.1385L19.5569 19.0498L18.9521 20.0974ZM21.1353 20.039L20.5305 18.9914L22.1089 18.0802L22.7137 19.1277L21.1353 20.039ZM15.7953 18.2748L14.2169 17.3635L14.8218 16.316L16.4002 17.2273L15.7953 18.2748ZM24.2921 18.2165L23.6873 17.1689L25.2656 16.2576L25.8705 17.3052L24.2921 18.2165ZM12.6384 16.4523L11.06 15.541L11.6648 14.4934L13.2432 15.4047L12.6384 16.4523ZM27.4489 16.3939L26.844 15.3463L28.349 14.4774L28.9539 15.525L27.4489 16.3939Z" fill="white"/>
<path d="M20.6048 30.3208H19.3952V28.7724H20.6048V30.3208ZM20.6048 27.5789H19.3952V26.0305H20.6048V27.5789ZM20.6048 24.8369H19.3952V23.2886H20.6048V24.8369ZM20.6048 22.095H19.3952V20.5466H20.6048V22.095Z" fill="white"/>
</svg>
