<svg width="40" height="40" viewBox="0 0 40 40" fill="none" xmlns="http://www.w3.org/2000/svg">
<path d="M39.9998 20C39.9998 12.1813 35.5131 5.4108 28.9739 2.12202C27.9109 1.59288 26.7899 1.15253 25.6186 0.812667C25.4902 0.78056 25.3617 0.748452 25.2494 0.716345C25.2333 0.700291 25.2173 0.700291 25.2012 0.700291C25.153 0.684237 25.1049 0.684237 25.0567 0.668183C25.0086 0.652129 24.9604 0.652129 24.9122 0.636075C24.4627 0.523699 24.0293 0.427376 23.5798 0.347107V5.58065C25.6989 6.31912 27.4808 7.86029 28.5243 9.85096L29.1183 10.9587L29.1119 10.9628L29.1183 10.9747L24.543 13.9126L23.8366 12.6764C22.9216 11.0871 22.0547 10.5252 20.5295 10.5252C19.0873 10.5252 17.5811 11.4531 17.5758 13.1971C17.5811 14.4451 18.9919 15.1823 20.8346 16.0156L22.5684 16.7862C25.9878 18.2792 29.6321 20.302 29.6321 25.3429V25.3911C29.6321 26.9162 29.2468 28.4092 28.5404 29.7577C28.1712 30.4641 27.6895 31.1223 27.1437 31.7163C26.1484 32.7758 24.9283 33.5945 23.5798 34.1083V39.6802C32.9171 37.9928 39.9998 29.8237 39.9998 20Z" fill="#745DDF"/>
<path d="M0 20C0 30.2691 7.73954 38.7306 17.7038 39.8694L17.6881 34.4773C14.076 33.6264 11.411 30.8331 10.6084 26.932L10.3515 25.6958L10.3698 25.6907L10.3676 25.6798L15.9061 24.1226L16.1309 25.6637C16.3877 27.4297 17.7041 29.3401 20.0159 29.3401C21.0687 29.3401 22.1645 28.9133 22.942 28.1516C23.5782 27.521 23.9972 26.664 23.9972 25.6316C23.9972 25.6234 23.9971 25.6156 23.9969 25.6074L23.9812 25.5995C23.9812 25.0707 23.8855 24.6297 23.7002 24.2463C23.1674 23.1831 21.9318 22.5641 20.1122 21.7306L19.9838 21.6663L18.4266 20.9921C15.2961 19.5793 11.989 17.701 11.9408 13.1899V12.9973C11.9408 11.6488 12.294 10.3323 12.9683 9.16042C14.0278 7.3945 15.7135 6.07809 17.7041 5.50015V0.13031C7.73986 1.26901 0 9.73065 0 20Z" fill="#2EB6EA"/>
<path d="M27.1279 31.7161C27.6738 31.1381 28.1554 30.4639 28.5246 29.7575C29.247 28.409 29.6163 26.916 29.6163 25.3909V25.3427L29.6323 25.3588C29.6323 20.3179 25.9881 18.2951 22.5686 16.8021L20.8348 16.0315C18.9886 15.2128 17.5759 14.4743 17.5759 13.206C17.5759 13.203 17.5759 13.1999 17.5759 13.1969C17.5759 13.1945 17.5759 13.1922 17.5759 13.19C17.5759 11.4401 19.101 10.509 20.5298 10.509C22.0549 10.509 22.9218 11.0709 23.8369 12.6602L24.5433 13.8963L29.1122 10.9627L28.5246 9.86683C27.4811 7.86011 25.7152 6.33499 23.58 5.59652V0.346923C22.9689 0.237596 22.5192 0.160538 22.0824 0.107239C21.5704 0.0542619 21.0528 0.0205489 20.5303 0.00690314C20.3664 0.00353184 20.1906 0.0012843 20 0C19.2237 0 18.4576 0.0443085 17.7043 0.130357V5.5323C15.7137 6.09419 14.028 7.4106 12.9685 9.19257C12.2942 10.3645 11.941 11.6809 11.941 13.0294V13.1579C11.9892 17.6529 15.2963 19.5473 18.4268 20.96L19.984 21.6343L20.1124 21.6985C21.9384 22.5404 23.1772 23.1632 23.7004 24.2464C23.8934 24.6314 23.9941 25.0748 23.9971 25.6076L24.0135 25.6158C24.0135 26.6569 23.5876 27.5198 22.9422 28.1518C22.1638 28.9235 21.0601 29.3563 20 29.3563C17.6883 29.3563 16.3719 27.4459 16.115 25.68L15.8903 24.1388L10.37 25.6909L10.6246 26.9161C11.4112 30.8172 14.0762 33.6266 17.7043 34.4614V39.8696C18.4576 39.9557 19.2237 40 20 40C21.2164 40 22.4075 39.8913 23.564 39.6833V34.1082C24.9125 33.5945 26.1326 32.7758 27.1279 31.7162V31.7161Z" fill="white"/>
</svg>
