<svg width="40" height="40" viewBox="0 0 40 40" fill="none" xmlns="http://www.w3.org/2000/svg">
<circle cx="20" cy="20" r="20" fill="white"/>
<path d="M28.0538 12.0657H25.186C25.0081 12.0657 24.8473 12.172 24.7778 12.3358L20.3654 22.7196C20.2284 23.042 19.7714 23.042 19.6345 22.7196L15.2221 12.3358C15.1525 12.172 14.9918 12.0657 14.8138 12.0657H11.946C11.7189 12.0657 11.5349 12.2498 11.5349 12.4768V27.2088C11.5349 27.4359 11.719 27.6199 11.946 27.6199H14.2421C14.4693 27.6199 14.6532 27.4358 14.6532 27.2088V19.8052C14.6532 19.3065 15.34 19.1714 15.5289 19.6329L18.6607 27.286C18.7434 27.4879 18.9398 27.6198 19.158 27.6198H20.8415C21.0597 27.6198 21.2563 27.4879 21.3388 27.286L24.4707 19.6329C24.6596 19.1713 25.3463 19.3065 25.3463 19.8052V22.4939C25.3463 22.698 25.5117 22.8635 25.7159 22.8635H28.0952C28.2993 22.8635 28.4648 22.6981 28.4648 22.4939V12.4766C28.4648 12.2495 28.2807 12.0655 28.0537 12.0655L28.0538 12.0657Z" fill="#232843"/>
<path d="M26.9059 28.0042C27.9792 28.0042 28.8493 27.1341 28.8493 26.0607C28.8493 24.9874 27.9792 24.1173 26.9059 24.1173C25.8326 24.1173 24.9625 24.9874 24.9625 26.0607C24.9625 27.1341 25.8326 28.0042 26.9059 28.0042Z" fill="#00BFFF"/>
</svg>
