<svg width="48" height="48" viewBox="0 0 48 48" fill="none" xmlns="http://www.w3.org/2000/svg">
<circle cx="24" cy="24" r="24" fill="#3D8130"/>
<circle cx="24" cy="24" r="23.5" stroke="#030403" stroke-opacity="0.1"/>
<g clip-path="url(#clip0_431_7228)">
<path d="M20.5042 7.60376C20.8426 7.49668 21.5174 7.31921 22.322 7.12667C22.0564 6.40072 21.0833 6.63912 20.5661 6.72869C20.016 6.82403 19.4795 7.01969 18.9269 7.44369C18.6944 7.62204 18.6183 7.87638 18.6079 8.11126C19.2367 7.93329 19.9381 7.7829 20.5042 7.60376Z" fill="#C82727"/>
<path d="M18.6079 8.24815C18.5774 8.24815 18.5474 8.23799 18.5229 8.21862C18.4885 8.19134 18.4691 8.1492 18.4711 8.10529C18.4856 7.77732 18.6143 7.51096 18.8435 7.33514C19.3567 6.94137 19.8967 6.70581 20.5427 6.59384C20.58 6.58739 20.6197 6.58015 20.6613 6.57253C20.9292 6.52363 21.2959 6.45675 21.6268 6.49176C22.047 6.53625 22.3241 6.73407 22.4506 7.07963C22.464 7.1163 22.4612 7.15698 22.4427 7.1914C22.4242 7.22582 22.3919 7.25076 22.3539 7.25985C21.5613 7.44945 20.8853 7.62683 20.5455 7.7344C20.2143 7.83922 19.8309 7.93583 19.4602 8.02941C19.1889 8.09786 18.9085 8.16856 18.6451 8.24307C18.6329 8.24649 18.6203 8.24825 18.6079 8.24825V8.24815ZM21.4285 6.75558C21.1832 6.75558 20.9256 6.80261 20.7104 6.84182C20.668 6.84955 20.6274 6.85698 20.5894 6.86353C19.9887 6.96757 19.4869 7.18642 19.0102 7.55223C18.8908 7.64385 18.8111 7.76843 18.7718 7.924C18.9772 7.86865 19.1877 7.81556 19.3931 7.76383C19.7768 7.66702 20.1393 7.5756 20.4627 7.47322C20.784 7.37162 21.3969 7.20949 22.1231 7.03368C22.0181 6.87712 21.8476 6.79039 21.5978 6.76399C21.5425 6.75812 21.4858 6.75558 21.4284 6.75558H21.4285Z" fill="black"/>
<path d="M15.8266 14.488C15.8266 14.488 14.3926 15.4017 12.2958 19.604C10.199 23.8063 9.52714 24.801 9.12456 26.7385C8.72198 28.6761 8.13684 32.7481 8.13684 34.4637C8.13684 36.1793 9.06501 38.2191 10.9095 39.1945C12.754 40.1699 15.5016 40.9274 19.1581 40.9274C22.8145 40.9274 22.5199 40.6328 25.3099 40.6328C28.0999 40.6328 36.2012 32.7221 35.0315 30.634C33.8618 28.5458 36.0728 26.8678 36.0728 25.4237C36.0728 24.5169 34.9101 23.5522 34.9101 23.5522C36.0828 22.1312 35.9239 21.9373 35.9239 21.3122C35.9239 20.6871 34.9304 17.1542 33.1527 16.0787C28.7392 16.3214 23.7748 16.907 21.8736 16.907C19.9725 16.907 18.1357 15.4956 17.5464 15.0198C16.9572 14.544 15.8265 14.488 15.8265 14.488H15.8266Z" fill="#3D8130"/>
<path d="M19.1581 41.0643C17.4274 41.0643 15.8009 40.8947 14.3241 40.5602C13.0186 40.2645 11.8482 39.8458 10.8455 39.3155C9.95969 38.847 9.22171 38.1059 8.71138 37.1723C8.25267 36.3329 8 35.371 8 34.4637C8 32.7324 8.59169 28.6309 8.99065 26.7108C9.30855 25.1804 9.80001 24.2168 10.9872 21.8887C11.3277 21.2212 11.7135 20.4645 12.1733 19.5429C13.2623 17.3607 14.1712 16.0763 14.7418 15.3831C15.369 14.6213 15.7377 14.3822 15.753 14.3725C15.777 14.3572 15.805 14.3498 15.8334 14.3512C15.8814 14.3535 17.0157 14.4151 17.6325 14.9132C18.18 15.3553 18.7352 15.7281 19.2827 16.021C20.2115 16.5181 21.0831 16.77 21.8737 16.77C22.8553 16.77 24.6822 16.6109 26.7976 16.4266C28.7778 16.2541 31.0222 16.0587 33.1453 15.9419C33.1728 15.9403 33.2001 15.9472 33.2237 15.9615C34.2105 16.5585 34.9143 17.8402 35.3309 18.8102C35.8073 19.9195 36.0609 20.9759 36.0609 21.3121C36.0609 21.3798 36.0629 21.4427 36.0647 21.5035C36.0724 21.7557 36.0792 21.9735 35.941 22.2938C35.8089 22.6 35.5479 22.9863 35.1 23.5365C35.3939 23.804 36.2097 24.6193 36.2097 25.4235C36.2097 25.9877 35.9022 26.5674 35.5766 27.1812C35.3024 27.698 35.0189 28.2325 34.8932 28.7987C34.7531 29.429 34.8375 30.0073 35.1509 30.5669C35.4363 31.0763 35.2601 31.8823 34.627 32.9625C33.7512 34.4569 32.0224 36.4 30.1151 38.0335C29.1794 38.8348 28.2616 39.5075 27.4607 39.9788C26.569 40.5035 25.8454 40.7696 25.3099 40.7696C24.0161 40.7696 23.3864 40.8335 22.7198 40.9013C21.9317 40.9814 21.1167 41.0642 19.1581 41.0642V41.0643ZM15.8659 14.6279C15.7627 14.7046 15.4333 14.9712 14.9357 15.5785C14.3775 16.2601 13.4876 17.5223 12.4184 19.6652C11.958 20.5879 11.5719 21.3451 11.2312 22.0131C10.0557 24.318 9.56924 25.272 9.25877 26.7664C8.86216 28.6754 8.27389 32.7486 8.27389 34.4637C8.27389 35.3259 8.51464 36.2412 8.95173 37.041C9.43625 37.9274 10.1354 38.6302 10.9736 39.0735C11.955 39.5926 13.1027 40.003 14.3846 40.2933C15.8416 40.6232 17.4477 40.7905 19.1581 40.7905C21.1029 40.7905 21.9109 40.7084 22.6922 40.6291C23.3658 40.5606 24.0022 40.496 25.3099 40.496C26.255 40.496 27.9848 39.4978 29.937 37.8258C31.8227 36.2108 33.5293 34.2943 34.3908 32.8243C34.963 31.848 35.1432 31.1137 34.912 30.701C34.5642 30.08 34.4706 29.4385 34.6258 28.7396C34.7596 28.1372 35.052 27.5861 35.3347 27.0532C35.6439 26.4703 35.9359 25.9198 35.9359 25.4238C35.9359 24.5924 34.8339 23.6669 34.8228 23.6577C34.7648 23.6095 34.7567 23.5234 34.8047 23.4652C35.2871 22.8805 35.5602 22.4858 35.6896 22.1856C35.8036 21.9213 35.7984 21.7497 35.791 21.5122C35.7891 21.4493 35.7871 21.3843 35.7871 21.3124C35.7871 21.0077 35.535 19.9799 35.0793 18.9186C34.8193 18.3134 34.5315 17.7825 34.2234 17.3407C33.8711 16.8353 33.4993 16.4578 33.1175 16.218C31.0113 16.3347 28.7863 16.5285 26.8214 16.6997C24.6997 16.8845 22.8673 17.0441 21.8737 17.0441C21.0377 17.0441 20.1224 16.7812 19.1535 16.2627C18.591 15.9617 18.0213 15.5794 17.4605 15.1265C16.9781 14.7369 16.0791 14.6448 15.8659 14.6281L15.8659 14.6279Z" fill="black"/>
<path d="M34.9709 14.739C34.9709 14.739 34.7195 11.988 34.5463 10.2963C34.373 8.60468 33.7418 7.94229 32.3816 6.94499C31.0214 5.94769 28.4464 6.08742 26.7843 6.25932C25.1221 6.43113 21.4628 7.30053 20.5042 7.60376C19.5456 7.90699 18.1991 8.12808 17.4743 8.53955C16.7496 8.95103 16.1601 9.69194 15.779 10.2903C15.3977 10.8887 14.8865 12.4732 14.8865 13.5759C14.8865 14.1674 15.8266 14.488 15.8266 14.488C15.8266 14.488 16.9572 14.544 17.5465 15.0198C18.1356 15.4956 19.9725 16.907 21.8737 16.907C23.775 16.907 28.7393 16.3214 33.1527 16.0787C33.56 16.3251 33.9261 16.7006 34.2486 17.1404C34.2604 17.1372 34.2722 17.1338 34.2838 17.1304C35.1954 16.4546 39.2064 18.4373 39.2821 18.4379C39.3579 18.4386 39.64 18.4423 39.6756 17.8112C39.7112 17.1801 37.4662 15.5837 34.9709 14.739Z" fill="#C82727"/>
<path d="M39.2917 18.5749C39.2878 18.5749 39.2843 18.5749 39.2812 18.5749C39.241 18.5745 39.2303 18.5698 38.9538 18.4462C38.4846 18.2364 37.5082 17.7998 36.5466 17.4844C36.0131 17.3094 35.5605 17.1974 35.2015 17.1512C34.6972 17.0865 34.4685 17.164 34.3654 17.2404C34.3527 17.2498 34.3384 17.257 34.3233 17.2615C34.3107 17.2653 34.2978 17.2689 34.2849 17.2725C34.2302 17.2875 34.1717 17.2673 34.1382 17.2214C33.8114 16.7756 33.4682 16.4382 33.1174 16.2178C31.0113 16.3345 28.7862 16.5283 26.8214 16.6995C24.6997 16.8843 22.8672 17.0439 21.8737 17.0439C21.0376 17.0439 20.1224 16.781 19.1535 16.2625C18.591 15.9615 18.0213 15.5792 17.4605 15.1263C16.9135 14.6846 15.8306 14.6252 15.8198 14.6247C15.8071 14.624 15.7945 14.6216 15.7824 14.6175C15.7403 14.6031 14.7496 14.2576 14.7496 13.5759C14.7496 13.0606 14.8592 12.3965 15.0582 11.706C15.236 11.0894 15.4623 10.5326 15.6635 10.2166C16.0308 9.64011 16.6315 8.86048 17.4068 8.42035C17.9002 8.1403 18.6592 7.94884 19.3933 7.76363C19.777 7.66683 20.1395 7.5754 20.463 7.47312C21.3869 7.18084 25.0841 6.29726 26.7702 6.12301C28.3086 5.96402 29.1821 5.99208 29.7053 6.02699C30.9143 6.10776 31.842 6.3794 32.4625 6.83439C33.1572 7.34375 33.6603 7.76354 34.0213 8.28179C34.3912 8.81276 34.5951 9.42978 34.6824 10.2822C34.8364 11.7854 35.0547 14.1528 35.0992 14.638C36.2319 15.0301 37.4115 15.6118 38.3487 16.2414C38.9073 16.6167 39.8404 17.3208 39.8123 17.8188C39.7951 18.123 39.7194 18.3392 39.5873 18.4615C39.4716 18.5686 39.3449 18.5747 39.2917 18.5747V18.5749ZM34.8598 16.8534C35.2901 16.8534 35.8775 16.9767 36.6319 17.2241C37.607 17.544 38.592 17.9844 39.0655 18.1961C39.1678 18.2418 39.2651 18.2853 39.3036 18.3008C39.3313 18.2997 39.3662 18.2932 39.4013 18.2607C39.4453 18.2199 39.5218 18.1064 39.5389 17.8035C39.5412 17.7627 39.5241 17.6043 39.2082 17.2791C38.9698 17.0338 38.6197 16.7535 38.1959 16.4689C37.2547 15.8366 36.0632 15.2533 34.927 14.8686C34.8758 14.8512 34.8395 14.8054 34.8346 14.7514C34.832 14.7239 34.5812 11.9818 34.41 10.3102C34.3277 9.50654 34.1386 8.92922 33.7966 8.43844C33.4573 7.95128 32.9726 7.54802 32.3006 7.05529C31.7226 6.63149 30.8432 6.37745 29.687 6.3002C28.6153 6.22862 27.5251 6.32024 26.7983 6.39534C25.1278 6.56803 21.4619 7.44427 20.5455 7.7342C20.2143 7.83903 19.8309 7.93564 19.4602 8.02922C18.7438 8.20992 18.0031 8.39679 17.5419 8.65855C16.8154 9.07091 16.2449 9.81348 15.8943 10.3638C15.7091 10.6544 15.4896 11.1978 15.3212 11.7819C15.129 12.4484 15.0232 13.0855 15.0232 13.5759C15.0232 13.8204 15.2452 14.0172 15.4315 14.1393C15.6149 14.2595 15.7991 14.332 15.8541 14.3524C16.0191 14.3629 17.0536 14.4459 17.6323 14.9132C18.1798 15.3553 18.735 15.7281 19.2825 16.021C20.2113 16.518 21.083 16.77 21.8735 16.77C22.8551 16.77 24.682 16.6109 26.7974 16.4266C28.7775 16.2541 31.022 16.0587 33.1451 15.9419C33.1725 15.9403 33.1998 15.9472 33.2235 15.9615C33.5922 16.1845 33.9502 16.5222 34.289 16.966C34.4324 16.8909 34.6221 16.8533 34.8597 16.8533L34.8598 16.8534Z" fill="black"/>
<path d="M37.8861 16.244C37.8714 16.244 37.8565 16.2416 37.8418 16.2365C36.7276 15.8559 35.6797 15.5728 34.1875 15.4287C32.549 15.2705 30.5164 15.2973 27.7908 15.513C27.7904 15.513 27.7899 15.513 27.7895 15.513C26.6539 15.5922 25.7432 15.7415 24.9396 15.8733C23.9548 16.0348 23.1043 16.1742 22.1701 16.1302C21.1608 16.0827 20.1145 15.8167 18.8773 15.2931C18.8099 15.2646 18.7768 15.1882 18.8023 15.1195C18.8276 15.0509 18.9024 15.0144 18.9721 15.0365C19.3764 15.1651 19.8685 15.1913 20.5206 15.1191C21.1367 15.051 21.8609 14.9009 22.6996 14.727C24.1134 14.434 25.8729 14.0693 28.1354 13.8744C29.2771 13.776 30.3488 13.7533 31.3207 13.8069C32.1003 13.8499 32.8182 13.9418 33.4546 14.0801C34.5492 14.318 35.024 14.6103 35.0437 14.6226C35.1078 14.6627 35.1272 14.7472 35.087 14.8113C35.0469 14.8753 34.9626 14.8947 34.8986 14.8548C34.894 14.852 34.4304 14.5698 33.3732 14.3426C32.7516 14.2091 32.0496 14.1205 31.2867 14.0793C30.3327 14.0278 29.2803 14.0507 28.1588 14.1473C25.9126 14.3408 24.1619 14.7037 22.7552 14.9953C21.9097 15.1705 21.1796 15.3219 20.5507 15.3914C20.3594 15.4126 20.1805 15.4256 20.0125 15.4304C20.7906 15.6868 21.4969 15.8245 22.1829 15.8567C23.0883 15.8994 23.9257 15.762 24.8953 15.603C25.7045 15.4703 26.6218 15.3199 27.7697 15.2398C30.5115 15.0228 32.5591 14.9961 34.2138 15.1559C35.7325 15.3026 36.7979 15.5903 37.9303 15.9772C38.0019 16.0017 38.04 16.0795 38.0156 16.151C37.9961 16.2079 37.9429 16.2437 37.886 16.2437L37.8861 16.244Z" fill="black"/>
<path d="M38.3239 17.4623C38.2988 17.4623 38.2735 17.4554 38.2507 17.441C37.6229 17.0435 36.8432 16.7187 35.9958 16.5018C35.0736 16.2658 34.0929 16.1667 33.1598 16.2154C33.0842 16.2194 33.0198 16.1613 33.0159 16.0858C33.012 16.0104 33.07 15.9459 33.1455 15.942C34.1059 15.8918 35.1151 15.9937 36.0637 16.2365C36.9384 16.4605 37.7454 16.7969 38.3971 17.2097C38.4609 17.2502 38.48 17.3347 38.4395 17.3986C38.4135 17.4398 38.3691 17.4623 38.3238 17.4623H38.3239Z" fill="black"/>
<path d="M36.0727 25.3139C37.1455 25.9724 36.7384 26.9255 36.4784 27.2287C36.2183 27.532 35.6336 28.0259 35.5773 28.3681C36.1231 29.3905 35.8199 29.854 34.7801 30.7985C33.7404 31.743 32.9779 31.2491 31.7215 31.3358C30.4652 31.4224 27.8355 31.6372 26.4448 31.3891C25.0541 31.1409 24.36 31.2578 22 30.1661C19.6399 29.0743 17.4381 27.7617 17.3601 27.4108C17.2821 27.06 17.2798 26.4426 17.633 26.2801C17.9862 26.1176 19.091 26.5511 20.5068 26.9949C21.9226 27.4388 23.9587 27.6187 25.4135 27.9696C26.8683 28.3206 29.3951 28.4489 30.9417 28.4489C32.4884 28.4489 35.3421 28.8058 36.0726 25.3139H36.0727Z" fill="#983C1F"/>
<path d="M28.2111 31.6423C27.5401 31.6423 26.9092 31.6109 26.4208 31.5238C26.1234 31.4707 25.857 31.4343 25.5994 31.3991C24.6402 31.2681 23.8117 31.155 21.9425 30.2903C20.8178 29.7699 19.6557 29.1642 18.7543 28.6282C18.315 28.3669 17.9617 28.1372 17.7043 27.9455C17.3183 27.6578 17.2461 27.5287 17.2265 27.4403C17.148 27.0876 17.1203 26.3652 17.5758 26.1556C17.8901 26.0108 18.5256 26.2071 19.7155 26.596C19.9812 26.6828 20.256 26.7727 20.5477 26.8641C21.3575 27.1179 22.3836 27.2863 23.376 27.4491C24.1224 27.5716 24.8274 27.6872 25.4455 27.8364C26.0908 27.992 27.0272 28.1193 28.1534 28.2042C29.0601 28.2726 30.0764 28.3118 30.9416 28.3118C31.0674 28.3118 31.2006 28.3141 31.3415 28.3166C32.1361 28.3304 33.1251 28.3477 33.998 27.9722C34.4721 27.7683 34.8542 27.4758 35.1661 27.0781C35.5257 26.6197 35.7856 26.0167 35.9385 25.2858C35.9476 25.2422 35.9775 25.2057 36.0183 25.1881C36.0592 25.1705 36.1061 25.1738 36.1442 25.1971C36.5803 25.4648 36.8336 25.8052 36.897 26.2088C36.9748 26.7035 36.7357 27.1386 36.5821 27.3177C36.5099 27.4021 36.4151 27.4989 36.3148 27.6014C36.09 27.831 35.7875 28.1402 35.722 28.3495C35.9956 28.878 36.0489 29.2724 35.9011 29.6611C35.7534 30.0494 35.412 30.4093 34.872 30.8997C34.098 31.6027 33.4604 31.5531 32.7219 31.4958C32.4136 31.4719 32.0948 31.4471 31.7308 31.4722C31.6352 31.4787 31.5316 31.4861 31.4212 31.4939C30.5568 31.5551 29.3284 31.6421 28.2109 31.6421L28.2111 31.6423ZM17.4935 27.3797C17.4993 27.3952 17.6047 27.6287 18.9228 28.4099C19.8119 28.9367 20.9544 29.5315 22.0574 30.0418C23.8894 30.8893 24.699 30.9998 25.6364 31.1279C25.8967 31.1635 26.1659 31.2002 26.4688 31.2543C27.7368 31.4807 30.0311 31.3182 31.4019 31.221C31.5125 31.2131 31.6163 31.2058 31.712 31.1992C32.0961 31.1727 32.4399 31.1994 32.7432 31.2229C33.1042 31.251 33.4159 31.2752 33.7277 31.2144C34.0672 31.1482 34.3723 30.9838 34.688 30.6972C35.1843 30.2463 35.5177 29.8995 35.6452 29.5639C35.7678 29.2413 35.7131 28.9136 35.4564 28.4327C35.4422 28.4062 35.4372 28.3756 35.4421 28.3459C35.4904 28.0524 35.8244 27.7111 36.1191 27.4099C36.2162 27.3108 36.3079 27.2171 36.3743 27.1397C36.4888 27.0061 36.6888 26.6485 36.6265 26.2515C36.5841 25.9812 36.428 25.7426 36.1619 25.5403C35.9959 26.2247 35.734 26.7982 35.3817 27.2473C35.0455 27.6759 34.6164 28.0045 34.1063 28.2239C33.1793 28.6226 32.1576 28.6048 31.3368 28.5906C31.1971 28.5881 31.0651 28.5859 30.9416 28.5859C30.0698 28.5859 29.046 28.5464 28.1327 28.4775C26.9921 28.3915 26.0406 28.2619 25.3813 28.1028C24.773 27.9561 24.0728 27.8412 23.3316 27.7196C22.3298 27.5552 21.294 27.3853 20.4658 27.1257C20.1724 27.0338 19.8969 26.9436 19.6303 26.8566C19.1268 26.692 18.692 26.5498 18.3476 26.4646C17.9245 26.3596 17.7565 26.3741 17.6901 26.4047C17.4316 26.5237 17.4194 27.0462 17.4932 27.3801L17.4935 27.3797Z" fill="black"/>
<path d="M29.9279 29.7288C29.5586 29.7288 29.1732 29.7261 28.7041 29.7181C27.9521 29.7053 27.1859 29.5308 26.5099 29.3768C25.9065 29.2393 25.3365 29.1093 24.8809 29.1169C24.4012 29.1249 23.1805 28.9621 21.8632 28.6449C21.1693 28.4778 20.5562 28.2941 20.0409 28.0988C19.433 27.8683 18.9819 27.628 18.7003 27.3843C18.6431 27.3348 18.6368 27.2484 18.6863 27.1912C18.7358 27.134 18.8222 27.1277 18.8795 27.1772C19.3624 27.595 20.4449 28.0218 21.9273 28.3787C23.2225 28.6905 24.4132 28.8507 24.8764 28.8431C25.3651 28.8351 25.9508 28.9684 26.5708 29.1097C27.2661 29.2681 27.9851 29.432 28.7087 29.4442C29.5912 29.4592 30.1771 29.4554 30.9189 29.4504C31.3576 29.4475 31.8547 29.4441 32.5015 29.4441H32.5436C33.4598 29.4442 34.3247 29.4446 35.4798 28.2719C35.5329 28.218 35.6195 28.2173 35.6734 28.2704C35.7273 28.3235 35.7279 28.4102 35.6748 28.464C35.1216 29.0257 34.5746 29.3844 34.0026 29.5605C33.4906 29.7181 33.0094 29.7179 32.5435 29.7179H32.5014C31.8555 29.7179 31.3589 29.7212 30.9207 29.7241C30.5709 29.7264 30.2558 29.7285 29.9278 29.7285L29.9279 29.7288Z" fill="black"/>
<path d="M16.5413 26.7072C16.5105 26.7072 16.4795 26.6969 16.454 26.6757C16.3958 26.6274 16.3878 26.5411 16.436 26.4829C16.7615 26.0906 17.1779 25.804 17.6739 25.6312C18.1926 25.4504 18.6647 25.4409 18.9695 25.4649C19.0449 25.4709 19.1012 25.5367 19.0953 25.6121C19.0893 25.6875 19.0234 25.7438 18.9481 25.7378C18.6695 25.7159 18.2379 25.7245 17.764 25.8897C17.3159 26.0458 16.94 26.3043 16.6469 26.6577C16.6198 26.6903 16.5808 26.7072 16.5414 26.7072L16.5413 26.7072Z" fill="black"/>
<path d="M17.4454 24.931C17.3972 24.931 17.3506 24.9056 17.3255 24.8604C17.2889 24.7943 17.3128 24.711 17.3789 24.6743C17.6853 24.5046 18.2424 24.4058 18.5507 24.4234C18.6262 24.4277 18.6839 24.4924 18.6796 24.5679C18.6752 24.6434 18.6105 24.701 18.535 24.6968C18.2406 24.6801 17.7433 24.7854 17.5116 24.9138C17.4906 24.9254 17.4678 24.931 17.4454 24.931Z" fill="black"/>
<path d="M26.4191 23.1138C26.2783 23.1138 26.1221 23.1057 25.9501 23.0894C25.3968 23.0372 24.7748 22.9115 24.2947 22.8078C23.7388 22.6877 23.0518 22.4883 22.5018 22.2872C22.1783 22.1689 21.9099 22.0535 21.7042 21.9442C21.4507 21.8094 21.2947 21.6848 21.2273 21.5631C21.1933 21.5016 21.082 21.3912 20.7456 21.2144C20.4831 21.0765 20.158 20.9353 19.814 20.7858C19.4058 20.6085 18.9837 20.4251 18.6618 20.2423C18.5989 20.2065 18.5746 20.1278 18.6066 20.0628C18.9429 19.3783 19.5877 18.8853 20.5233 18.5973C21.2804 18.3643 22.0335 18.3233 22.4382 18.3013C22.5386 18.2959 22.6399 18.2881 22.7473 18.2799C23.1113 18.252 23.524 18.2203 23.9557 18.2861C24.453 18.3618 24.9039 18.5554 25.334 18.878C25.8884 19.2937 26.1598 19.3994 26.4224 19.5016C26.6569 19.593 26.8784 19.6793 27.2541 19.9585C27.7373 20.3175 28.0422 20.8968 28.1809 21.2103C28.372 21.642 28.4797 22.0836 28.4426 22.2844C28.383 22.6078 28.0885 22.6589 27.8287 22.7039C27.6287 22.7385 27.422 22.7744 27.261 22.9109C27.1008 23.0466 26.8235 23.1139 26.4192 23.1139L26.4191 23.1138ZM18.9135 20.068C19.2063 20.2233 19.57 20.3813 19.9231 20.5346C20.6633 20.8562 21.3026 21.1339 21.4668 21.4303C21.4972 21.4853 21.6686 21.691 22.5958 22.0299C23.2401 22.2655 23.9257 22.4479 24.3525 22.5401C24.8252 22.6422 25.4369 22.766 25.9758 22.8168C26.6991 22.8851 26.9776 22.792 27.0838 22.7019C27.3018 22.5172 27.5679 22.471 27.7818 22.434C28.0477 22.3879 28.1502 22.3588 28.1731 22.2346C28.1923 22.1307 28.1284 21.7685 27.9303 21.321C27.8025 21.0322 27.5233 20.4997 27.0905 20.1782C26.7443 19.9209 26.5489 19.8449 26.3226 19.7567C26.056 19.6528 25.7537 19.535 25.1695 19.0969C24.7764 18.8022 24.3658 18.6254 23.9141 18.5567C23.5134 18.4956 23.1344 18.5247 22.7679 18.5528C22.6591 18.5612 22.5562 18.5691 22.4527 18.5747C22.0598 18.5961 21.3285 18.6359 20.6034 18.859C19.7978 19.107 19.23 19.5134 18.9133 20.068H18.9135Z" fill="black"/>
<path d="M28.3078 22.2593C28.3652 21.9482 27.9564 20.6507 27.1724 20.0682C27.0292 19.9619 26.9096 19.8849 26.8031 19.8249C25.7455 19.9734 24.4489 19.962 23.7829 19.9506C23.1014 19.9388 20.3011 19.8214 19.4023 20.4551C20.217 20.8217 21.1728 21.182 21.3471 21.4965C21.5738 21.9059 23.3329 22.4598 24.3236 22.6738C25.3143 22.8878 26.755 23.16 27.1724 22.8062C27.5898 22.4523 28.2302 22.6799 28.3078 22.2592V22.2593Z" fill="white"/>
<path d="M26.419 23.1138C26.2782 23.1138 26.122 23.1057 25.95 23.0894C25.3968 23.0372 24.7748 22.9115 24.2947 22.8078C23.7388 22.6877 23.0517 22.4883 22.5018 22.2872C22.1782 22.1689 21.9099 22.0535 21.7042 21.9442C21.4506 21.8094 21.2946 21.6848 21.2273 21.5631C21.1932 21.5016 21.082 21.3912 20.7456 21.2144C20.4829 21.0765 20.158 20.9352 19.8139 20.7858C19.6593 20.7187 19.4993 20.6492 19.3461 20.5802C19.3013 20.5601 19.2707 20.5173 19.266 20.4684C19.2613 20.4195 19.2832 20.3718 19.3234 20.3435C19.7001 20.0779 20.4208 19.9073 21.4658 19.8365C22.3045 19.7797 23.1486 19.7994 23.602 19.81C23.6735 19.8116 23.7351 19.8131 23.7852 19.8139C24.2508 19.8219 25.668 19.8462 26.7841 19.6895C26.8139 19.6853 26.8442 19.691 26.8703 19.7057C26.9911 19.7737 27.1166 19.8563 27.254 19.9584C27.7371 20.3174 28.042 20.8967 28.1808 21.2102C28.3719 21.6419 28.4795 22.0835 28.4425 22.2843C28.3828 22.6077 28.0884 22.6588 27.8286 22.7038C27.6287 22.7384 27.4219 22.7743 27.2608 22.9108C27.1007 23.0465 26.8234 23.1138 26.419 23.1138ZM19.7089 20.4413C19.7805 20.4727 19.8523 20.5039 19.923 20.5346C20.6633 20.8562 21.3027 21.134 21.4668 21.4303C21.4972 21.4853 21.6688 21.691 22.5959 22.0299C23.2401 22.2655 23.9257 22.4479 24.3525 22.5401C24.8252 22.6422 25.437 22.766 25.9759 22.8168C26.6992 22.8851 26.9777 22.792 27.0838 22.7019C27.3018 22.5172 27.568 22.471 27.7818 22.434C28.0476 22.3879 28.1503 22.3588 28.1732 22.2346C28.1923 22.1307 28.1285 21.7685 27.9304 21.321C27.8026 21.0322 27.5234 20.4997 27.0906 20.1782C26.9777 20.0943 26.8741 20.0249 26.7753 19.967C25.6457 20.1196 24.2449 20.0956 23.7803 20.0876C23.7298 20.0867 23.6677 20.0852 23.5955 20.0836C23.1464 20.0731 22.3103 20.0536 21.484 20.1096C20.679 20.1641 20.0839 20.2754 19.7087 20.4413H19.7089Z" fill="black"/>
<path d="M23.7828 19.9507C23.5118 19.946 22.9056 19.9247 22.2172 19.9404C21.7179 20.4562 21.4214 20.7742 21.3104 21.4434C21.3249 21.4613 21.3372 21.479 21.347 21.4966C21.5738 21.906 23.3328 22.4599 24.3235 22.6739C24.5906 22.7315 24.8904 22.7934 25.1939 22.8462C25.3855 22.517 25.603 22.0373 25.603 21.557C25.603 20.9733 25.5574 20.3938 25.1608 19.9473C24.6153 19.9621 24.1188 19.9563 23.7827 19.9506L23.7828 19.9507Z" fill="black"/>
<path d="M24.3376 21.7874C24.6183 21.7874 24.8459 21.5599 24.8459 21.2792C24.8459 20.9984 24.6183 20.7709 24.3376 20.7709C24.0569 20.7709 23.8293 20.9984 23.8293 21.2792C23.8293 21.5599 24.0569 21.7874 24.3376 21.7874Z" fill="white"/>
<path d="M22.7738 21.7786C22.9149 21.7786 23.0293 21.6642 23.0293 21.5231C23.0293 21.382 22.9149 21.2676 22.7738 21.2676C22.6327 21.2676 22.5183 21.382 22.5183 21.5231C22.5183 21.6642 22.6327 21.7786 22.7738 21.7786Z" fill="white"/>
<path d="M22.6411 20.9125C22.7822 20.9125 22.8966 20.7981 22.8966 20.657C22.8966 20.5158 22.7822 20.4014 22.6411 20.4014C22.5 20.4014 22.3856 20.5158 22.3856 20.657C22.3856 20.7981 22.5 20.9125 22.6411 20.9125Z" fill="white"/>
<path d="M28.9408 21.8822C28.8659 21.8822 28.8047 21.8219 28.8039 21.7468C28.7994 21.3186 28.6355 20.9181 28.303 20.5225C28.018 20.1836 27.6707 19.9239 27.4171 19.7343C27.3291 19.6685 27.2532 19.6116 27.1935 19.5618C27.0202 19.417 26.8722 19.2536 26.7289 19.0955C26.5389 18.8859 26.3594 18.6878 26.1418 18.5548C25.755 18.3183 24.9312 18.0043 24.2256 17.8242C23.8433 17.7268 23.3842 17.7664 22.898 17.8084C22.5214 17.8409 22.1319 17.8745 21.7314 17.8519C20.8123 17.8 20.3498 17.8105 19.7777 18.1294C19.492 18.2887 19.0881 18.6085 18.7486 18.9443C18.5748 19.1161 18.4271 19.2832 18.3212 19.4273C18.1784 19.6218 18.1472 19.7252 18.1413 19.7695C18.105 20.0442 18.1551 20.112 18.1783 20.1283C18.1955 20.1405 18.2998 20.1911 18.6663 20.0016C18.7335 19.9669 18.8161 19.9932 18.8509 20.0604C18.8856 20.1276 18.8593 20.2101 18.7921 20.2449C18.4287 20.4326 18.1837 20.4669 18.0209 20.3524C17.8299 20.2181 17.8432 19.9349 17.8699 19.7336C17.9084 19.4431 18.2643 19.0382 18.5559 18.7497C18.9171 18.3926 19.334 18.0633 19.6443 17.8904C20.2764 17.5381 20.7943 17.5249 21.7467 17.5787C22.1278 17.6002 22.5074 17.5675 22.8744 17.5358C23.3843 17.4918 23.8659 17.4502 24.293 17.5592C25.0215 17.7449 25.8776 18.0726 26.2845 18.3214C26.5357 18.475 26.737 18.6971 26.9316 18.9119C27.0685 19.063 27.2102 19.2192 27.3689 19.3519C27.4229 19.397 27.4961 19.4518 27.5809 19.5152C28.0999 19.9032 29.0658 20.6256 29.0775 21.7441C29.0783 21.8197 29.0177 21.8816 28.9421 21.8825C28.9416 21.8825 28.9411 21.8825 28.9406 21.8825L28.9408 21.8822Z" fill="black"/>
<path d="M29.0876 20.5663C29.0135 20.5663 28.9525 20.5071 28.9508 20.4325C28.9308 19.5651 28.5039 19.1671 28.2488 18.9294C28.2022 18.886 28.1621 18.8485 28.1293 18.8129C28.0701 18.7485 28.0213 18.6903 27.9697 18.6286C27.8468 18.4819 27.7075 18.3156 27.3727 18.0064C26.8908 17.5612 25.0253 17.7628 24.4123 17.8291C24.3371 17.8373 24.2697 17.7829 24.2615 17.7078C24.2534 17.6326 24.3078 17.5651 24.3829 17.557C24.8537 17.5061 25.5501 17.44 26.1591 17.4533C26.8609 17.4686 27.3188 17.5838 27.5585 17.8054C27.9061 18.1264 28.0514 18.2999 28.1796 18.4529C28.2291 18.5121 28.276 18.568 28.3309 18.6278C28.3564 18.6556 28.393 18.6897 28.4355 18.7292C28.7033 18.9789 29.202 19.4437 29.2245 20.4264C29.2262 20.502 29.1664 20.5646 29.0908 20.5664C29.0897 20.5664 29.0887 20.5664 29.0876 20.5664V20.5663Z" fill="black"/>
<path d="M28.0926 18.6991C28.076 18.6991 28.059 18.6961 28.0426 18.6896C27.9722 18.662 27.9376 18.5826 27.9652 18.5122C28.1797 17.9656 28.0461 17.7384 27.4046 16.6466L27.362 16.5742C27.3237 16.509 27.3455 16.4251 27.4107 16.3868C27.476 16.3485 27.5599 16.3703 27.5981 16.4355L27.6406 16.508C27.9726 17.0729 28.1731 17.4139 28.2694 17.7111C28.3684 18.0168 28.3547 18.2695 28.2201 18.6123C28.1989 18.6663 28.1473 18.6992 28.0926 18.6992V18.6991Z" fill="black"/>
<path d="M27.0848 23.9035C26.976 23.9035 26.8599 23.8993 26.7355 23.891C26.5141 23.8761 26.3099 23.867 26.1123 23.8582C25.6093 23.8357 25.1749 23.8163 24.652 23.7155C24.4212 23.6711 24.1136 23.6617 23.7881 23.6516C23.128 23.6314 22.3064 23.606 21.6515 23.2696C20.9808 22.9251 20.6398 22.5417 20.366 22.2338C20.2488 22.1021 20.1477 21.9884 20.043 21.9055C19.9837 21.8585 19.9737 21.7724 20.0207 21.7131C20.0676 21.6539 20.1538 21.6439 20.213 21.6908C20.3364 21.7886 20.445 21.9105 20.5706 22.0518C20.8295 22.3429 21.1516 22.7049 21.7768 23.0262C22.3767 23.3344 23.1311 23.3576 23.7966 23.378C24.1334 23.3884 24.4515 23.3981 24.7039 23.4467C25.2071 23.5436 25.6323 23.5627 26.1246 23.5847C26.3235 23.5936 26.5294 23.6028 26.7538 23.6179C27.5503 23.6712 28.0049 23.547 28.3755 23.1746C28.5338 23.0155 28.6976 22.8509 28.6851 22.7567C28.6739 22.6708 28.5238 22.5433 28.239 22.3779C28.1737 22.3398 28.1515 22.256 28.1895 22.1907C28.2274 22.1254 28.3112 22.1032 28.3766 22.1411C28.704 22.3314 28.9279 22.5028 28.9566 22.721C28.9865 22.9487 28.7933 23.1429 28.5696 23.3677C28.3423 23.5961 28.0818 23.7462 27.7731 23.8267C27.5753 23.8783 27.3517 23.9036 27.0849 23.9036L27.0848 23.9035Z" fill="black"/>
<path d="M23.2476 26.4039C23.1801 26.4039 23.1214 26.3541 23.1121 26.2853C23.102 26.2104 23.1545 26.1415 23.2295 26.1314C24.1445 26.0082 24.8702 25.7775 25.5137 25.4054C26.1775 25.0214 26.8037 24.4602 27.4844 23.6393C27.5326 23.5811 27.6189 23.573 27.6771 23.6213C27.7353 23.6696 27.7434 23.7558 27.6951 23.814C26.9931 24.6606 26.3435 25.2416 25.6507 25.6424C24.9754 26.033 24.2176 26.2747 23.266 26.4028C23.2598 26.4035 23.2537 26.404 23.2475 26.404L23.2476 26.4039Z" fill="black"/>
<path d="M32.3713 25.7383C32.3076 25.7383 32.2506 25.6937 32.2373 25.629C32.1623 25.2643 31.9458 24.9343 31.5558 24.5903C31.2011 24.2773 30.7445 23.9935 30.3029 23.7191C30.2002 23.6551 30.0938 23.5891 29.9902 23.5235C29.9301 23.4855 29.9092 23.4076 29.942 23.3445C29.975 23.2813 30.0507 23.254 30.1164 23.2816C30.1918 23.3133 30.2685 23.3542 30.3498 23.3976C30.5385 23.4982 30.7733 23.6235 31.1179 23.6953C31.5286 23.7809 32.0112 23.7759 32.5931 23.68C32.6677 23.6676 32.7381 23.7182 32.7505 23.7928C32.7628 23.8674 32.7122 23.9378 32.6376 23.9501C32.0407 24.0485 31.5869 24.0457 31.2317 23.9934C31.8506 24.426 32.3698 24.9149 32.5053 25.5737C32.5206 25.6478 32.4729 25.7202 32.3988 25.7354C32.3895 25.7373 32.3803 25.7382 32.3712 25.7382L32.3713 25.7383Z" fill="black"/>
<path d="M33.6948 24.4895C33.623 24.4895 33.5476 24.4854 33.4683 24.4767C33.3931 24.4684 33.339 24.4007 33.3473 24.3256C33.3556 24.2504 33.4232 24.1962 33.4984 24.2046C34.2097 24.2832 34.5476 23.9291 34.6899 23.6979C34.4089 23.7133 34.2523 23.7394 34.1415 23.758C33.969 23.7867 33.8848 23.7966 33.6965 23.7272C33.6255 23.7011 33.5892 23.6224 33.6153 23.5514C33.6414 23.4804 33.7201 23.4441 33.7911 23.4702C33.9193 23.5174 33.9498 23.5123 34.0964 23.4878C34.2413 23.4637 34.4602 23.4271 34.9064 23.4152C34.9504 23.414 34.9922 23.4341 35.0189 23.469C35.0456 23.504 35.0538 23.5496 35.0411 23.5917C35.0379 23.6024 34.9592 23.8562 34.7246 24.0907C34.5354 24.28 34.2095 24.4894 33.6947 24.4894L33.6948 24.4895Z" fill="black"/>
<path d="M35.9239 21.3122C35.3945 20.9255 34.67 20.5107 33.9041 20.2956C33.1383 20.0806 31.3188 19.8829 30.7859 20.3452C30.253 20.8075 29.5414 21.7731 29.5414 22.1031C29.5414 22.4331 30.24 22.6134 30.8768 22.6134C31.5137 22.6134 31.8144 22.7834 32.8402 22.7834C33.8661 22.7834 35.0834 22.7128 35.9238 21.3122H35.9239Z" fill="white"/>
<path d="M32.8403 22.9203C32.2561 22.9203 31.9039 22.8663 31.593 22.8187C31.3538 22.782 31.1471 22.7503 30.8769 22.7503C30.1677 22.7503 29.4045 22.5478 29.4045 22.1031C29.4045 21.8673 29.6482 21.4785 29.8527 21.194C30.1155 20.8281 30.4309 20.4721 30.6963 20.2419C31.0271 19.9549 31.7302 19.9136 32.2619 19.9295C32.9155 19.9492 33.5763 20.0614 33.9412 20.1638C34.8499 20.419 35.6242 20.9236 36.0048 21.2017C36.062 21.2435 36.0778 21.322 36.0414 21.3827C35.6474 22.0393 35.1425 22.4709 34.4979 22.7019C33.9358 22.9034 33.3476 22.9203 32.8404 22.9203H32.8403ZM32.0619 20.2007C31.5445 20.2007 31.0834 20.2685 30.8756 20.4487C30.6291 20.6625 30.3223 21.0094 30.075 21.3538C29.7823 21.7614 29.6783 22.0122 29.6783 22.1032C29.6783 22.1866 29.8071 22.282 30.0143 22.3524C30.2467 22.4313 30.561 22.4766 30.8769 22.4766C31.168 22.4766 31.3946 22.5113 31.6346 22.5481C31.9357 22.5943 32.277 22.6466 32.8404 22.6466C33.7638 22.6466 34.1324 22.5421 34.4055 22.4443C34.9528 22.2481 35.3904 21.8892 35.74 21.3489C35.348 21.0736 34.6595 20.65 33.8672 20.4276C33.4299 20.3047 32.7029 20.2008 32.062 20.2008L32.0619 20.2007Z" fill="black"/>
<path d="M35.8507 20.6914C35.8507 20.6914 36.0637 19.7514 35.9072 19.1795C36.2126 19.3986 36.2529 19.2921 36.2445 19.0669C36.2361 18.8417 35.329 17.8112 34.0048 17.8112C32.096 17.8112 31.2451 18.235 31.2451 18.235" fill="#3D8130"/>
<path d="M35.8508 20.8283C35.8408 20.8283 35.8306 20.8272 35.8204 20.8249C35.7467 20.8081 35.7004 20.7348 35.7171 20.6611C35.7196 20.65 35.9205 19.7468 35.7751 19.2156C35.7599 19.1597 35.7814 19.1002 35.829 19.0671C35.8766 19.0339 35.9399 19.0344 35.9869 19.0682C36.0424 19.108 36.0815 19.1309 36.1079 19.1443C36.1087 19.127 36.1088 19.1042 36.1077 19.0743C36.0942 19.0058 35.9008 18.7235 35.5146 18.4488C35.1935 18.2204 34.6708 17.948 34.0047 17.948C32.1497 17.948 31.3143 18.3535 31.3061 18.3575C31.2384 18.3912 31.1562 18.3636 31.1226 18.296C31.0888 18.2283 31.1164 18.1461 31.1841 18.1124C31.2199 18.0945 32.0859 17.6742 34.0047 17.6742C34.7567 17.6742 35.3409 17.9839 35.6985 18.2437C36.0807 18.5214 36.3742 18.8731 36.3813 19.0617C36.3849 19.1585 36.3916 19.3387 36.2564 19.4114C36.2036 19.4397 36.1473 19.4426 36.0894 19.4291C36.1449 20.0014 35.9918 20.6879 35.9842 20.7217C35.9698 20.7852 35.9133 20.8284 35.8508 20.8284V20.8283Z" fill="black"/>
<path d="M35.7719 20.6335C35.7145 20.6335 35.661 20.5971 35.6419 20.5397C35.5037 20.1232 35.2408 19.806 34.8607 19.5974C34.5261 19.4136 34.0998 19.3165 33.6278 19.3165C33.1558 19.3165 32.7604 19.3272 32.3458 19.4653C31.8757 19.6219 31.4101 19.9329 30.8809 20.4438C30.8266 20.4963 30.7398 20.4948 30.6873 20.4404C30.6348 20.386 30.6364 20.2993 30.6907 20.2468C31.2505 19.7063 31.749 19.3754 32.2593 19.2055C32.712 19.0547 33.1293 19.0426 33.6278 19.0426C34.1263 19.0426 34.6177 19.1515 34.9926 19.3573C35.4351 19.6004 35.7411 19.9691 35.9017 20.4535C35.9256 20.5252 35.8867 20.6027 35.8149 20.6265C35.8006 20.6313 35.7861 20.6336 35.7718 20.6336L35.7719 20.6335Z" fill="black"/>
<path d="M30.2302 19.8229C30.2021 19.8229 30.1737 19.8143 30.1494 19.7964C30.0884 19.7517 30.0752 19.666 30.1199 19.605C30.3394 19.3055 30.6429 19.0361 30.9977 18.8259C31.3409 18.6225 31.7248 18.4781 32.1077 18.4084C32.5092 18.3354 33.1867 18.2803 33.884 18.345C34.7676 18.427 35.4766 18.6714 35.9912 19.0715C36.0509 19.1179 36.0617 19.2039 36.0153 19.2636C35.9688 19.3234 35.8829 19.3341 35.8231 19.2877C35.5723 19.0927 35.2623 18.9356 34.9019 18.8208C34.5898 18.7213 34.2387 18.653 33.8586 18.6178C33.189 18.5557 32.5404 18.6081 32.1567 18.6779C31.4322 18.8097 30.7363 19.2271 30.3406 19.767C30.3138 19.8036 30.2722 19.8231 30.2301 19.8231L30.2302 19.8229Z" fill="black"/>
<path d="M33.3747 20.1803C32.5672 20.0414 31.4172 19.98 30.9031 20.2647C30.4761 21.3221 30.3019 21.8544 30.5344 22.5963C30.6476 22.6077 30.7633 22.6134 30.8769 22.6134C31.5138 22.6134 31.8145 22.7834 32.8404 22.7834C33.0262 22.7834 33.2185 22.781 33.4137 22.7689C33.7407 22.4848 33.9766 22.1359 34.0251 21.7594C34.1157 21.0553 33.7508 20.5273 33.3747 20.1804V20.1803Z" fill="black"/>
<path d="M33.0547 21.8777C33.2979 21.8777 33.4951 21.6805 33.4951 21.4373C33.4951 21.194 33.2979 20.9969 33.0547 20.9969C32.8114 20.9969 32.6143 21.194 32.6143 21.4373C32.6143 21.6805 32.8114 21.8777 33.0547 21.8777Z" fill="white"/>
<path d="M31.4965 21.1351C31.6292 21.1351 31.7368 21.0275 31.7368 20.8948C31.7368 20.762 31.6292 20.6544 31.4965 20.6544C31.3637 20.6544 31.2561 20.762 31.2561 20.8948C31.2561 21.0275 31.3637 21.1351 31.4965 21.1351Z" fill="white"/>
<path d="M31.575 22.1064C31.6949 22.1064 31.7921 22.0092 31.7921 21.8893C31.7921 21.7694 31.6949 21.6722 31.575 21.6722C31.4551 21.6722 31.3579 21.7694 31.3579 21.8893C31.3579 22.0092 31.4551 22.1064 31.575 22.1064Z" fill="white"/>
<path d="M28.8277 34.8798C28.2212 34.1778 27.4876 34.4868 27.3894 34.6254C27.2913 34.7641 26.7483 35.024 27.1122 35.6652C27.4762 36.3063 28.487 37.1786 28.4985 37.5424C28.51 37.9063 28.3599 39.4139 28.9086 39.8472C29.4574 40.2805 30.6704 41.3433 31.7332 41.5454C32.796 41.7475 33.9657 41.8631 34.9969 41.8631C36.028 41.8631 37.6569 41.5772 38.1421 41.2999C38.6273 41.0226 39.5372 40.5953 39.6843 40.2514C39.8315 39.9075 39.1211 38.2972 38.8959 38.0396C38.6707 37.7821 38.1768 36.7402 37.8995 36.4597C37.6222 36.1791 37.2496 35.4513 36.8597 35.1914C36.4699 34.9315 34.4625 33.7123 34.2857 33.2557C34.1089 32.799 33.342 32.2194 32.9434 32.2194C32.5448 32.2194 31.6697 32.6093 31.1844 33.0339C30.6991 33.4585 29.8501 34.143 29.7548 34.2209C29.6596 34.2988 29.0704 34.4899 28.8277 34.8796V34.8798Z" fill="#3D8130"/>
<path d="M34.9969 42C33.9609 42 32.7928 41.8863 31.7077 41.6799C30.7296 41.4938 29.6654 40.6337 29.0297 40.1198C28.955 40.0594 28.8844 40.0024 28.8239 39.9546C28.3109 39.5496 28.3417 38.4107 28.3582 37.799C28.361 37.6934 28.3635 37.6022 28.3617 37.5467C28.3607 37.5123 28.336 37.4242 28.1837 37.2198C28.065 37.0607 27.9046 36.8777 27.7347 36.6838C27.4532 36.3625 27.1621 36.0302 26.9931 35.7326C26.8434 35.4688 26.812 35.2237 26.9 35.004C26.9728 34.822 27.1127 34.6977 27.2052 34.6154C27.2334 34.5904 27.2683 34.5593 27.2777 34.5461C27.3543 34.438 27.594 34.3154 27.8876 34.3013C28.1316 34.2896 28.4799 34.3479 28.8157 34.6683C29.0291 34.4273 29.3412 34.2767 29.5399 34.1808C29.5905 34.1564 29.6534 34.126 29.6688 34.1145C29.6803 34.1051 29.7046 34.0854 29.7388 34.0576C29.9698 33.8702 30.6726 33.3 31.0944 32.9308C31.3313 32.7235 31.6758 32.5092 32.0396 32.3429C32.4016 32.1775 32.731 32.0825 32.9435 32.0825C33.4078 32.0825 34.2183 32.7021 34.4134 33.2062C34.4442 33.2857 34.6021 33.4951 35.3141 34.0047C35.7811 34.3389 36.3068 34.6744 36.6547 34.8964C36.7779 34.975 36.8752 35.0371 36.9358 35.0775C37.197 35.2515 37.4392 35.6012 37.6531 35.9096C37.7792 36.0917 37.8984 36.2636 37.9971 36.3634C38.1623 36.5306 38.3808 36.9159 38.592 37.2885C38.7469 37.5616 38.907 37.8441 38.9992 37.9495C39.106 38.0717 39.338 38.5035 39.5575 39.0632C39.6612 39.3275 39.741 39.57 39.7882 39.7647C39.8509 40.0225 39.8579 40.1943 39.8104 40.3053C39.6831 40.6027 39.1774 40.8937 38.5296 41.2433C38.4131 41.3062 38.303 41.3656 38.2101 41.4187C37.9674 41.5574 37.4527 41.7038 36.7983 41.8202C36.1561 41.9344 35.4996 41.9999 34.9971 41.9999L34.9969 42ZM27.5006 34.7052C27.4732 34.7437 27.4333 34.7791 27.3872 34.8201C27.2104 34.9772 26.9903 35.1728 27.2313 35.5975C27.3864 35.8708 27.6682 36.1924 27.9407 36.5034C28.3664 36.9893 28.6278 37.2992 28.6354 37.538C28.6375 37.6015 28.635 37.6919 28.6319 37.8064C28.6245 38.0829 28.6131 38.5006 28.6599 38.8854C28.7126 39.3191 28.8248 39.6065 28.9935 39.7397C29.0553 39.7885 29.1264 39.846 29.2018 39.9069C29.5047 40.1518 29.9196 40.4872 30.3737 40.7822C30.9013 41.1249 31.3673 41.3364 31.7588 41.411C32.8277 41.6142 33.9777 41.7262 34.9969 41.7262C36.0161 41.7262 37.6194 41.4409 38.0741 41.1811C38.1699 41.1263 38.2813 41.0662 38.3994 41.0025C38.8212 40.7749 39.4587 40.4308 39.5585 40.1976C39.5855 40.1346 39.5667 39.8373 39.3024 39.1633C39.1106 38.6745 38.8842 38.2343 38.7928 38.1299C38.6823 38.0035 38.5299 37.7348 38.3536 37.4236C38.1606 37.0831 37.9418 36.6973 37.8022 36.556C37.6868 36.4392 37.5611 36.2577 37.4279 36.0657C37.228 35.7773 37.0015 35.4505 36.7839 35.3054C36.7256 35.2666 36.6293 35.2051 36.5073 35.1272C36.1571 34.9037 35.6277 34.5659 35.1547 34.2274C34.3618 33.66 34.2061 33.4293 34.1581 33.3051C34.0855 33.1178 33.8772 32.8763 33.6145 32.675C33.3618 32.4815 33.0984 32.3564 32.9435 32.3564C32.5939 32.3564 31.7552 32.7167 31.2747 33.137C30.849 33.5095 30.1433 34.0821 29.9113 34.2704C29.8776 34.2977 29.8535 34.3172 29.8416 34.327C29.8047 34.3572 29.7467 34.3852 29.659 34.4275C29.4513 34.5277 29.1038 34.6954 28.944 34.9521C28.9211 34.9891 28.8818 35.0128 28.8384 35.0163C28.7951 35.0197 28.7527 35.0022 28.7242 34.9692C28.4429 34.6436 28.1463 34.5739 27.9439 34.5739C27.9409 34.5739 27.9378 34.5739 27.9348 34.5739C27.7049 34.5762 27.5316 34.6685 27.5006 34.7052Z" fill="black"/>
<path d="M30.0667 35.6922C30.0311 35.6922 29.9955 35.6785 29.9686 35.6509C29.9158 35.5967 29.917 35.5101 29.9712 35.4573C30.0591 35.3715 30.3008 35.1123 30.3629 34.9446C30.3732 34.9169 30.3945 34.8593 30.2703 34.7363C30.165 34.6319 29.9851 34.5096 29.687 34.34C29.6213 34.3025 29.5983 34.219 29.6358 34.1533C29.6732 34.0876 29.7567 34.0646 29.8224 34.1021C30.3206 34.3856 30.7563 34.6707 30.6196 35.0397C30.5249 35.2952 30.199 35.6175 30.1621 35.6534C30.1355 35.6793 30.101 35.6922 30.0666 35.6922H30.0667Z" fill="black"/>
<path d="M33.2901 36.1778C33.2793 36.1778 33.2684 36.1766 33.2574 36.1739C33.184 36.156 33.139 36.0817 33.1569 36.0083C33.1604 35.9938 33.2428 35.6669 33.6177 35.0293C33.1377 34.7956 32.6846 34.7655 32.2364 34.9369C31.8191 35.0963 31.4842 35.4035 31.2395 35.6278C31.1204 35.737 31.0175 35.8315 30.9283 35.8879C30.4888 36.166 29.8023 36.1081 29.3039 36.0105C29.0812 35.9669 28.9075 35.7972 28.8016 35.5195C28.7016 35.2574 28.6908 34.9849 28.6908 34.8799C28.6908 34.8044 28.7521 34.7431 28.8277 34.7431C28.9033 34.7431 28.9646 34.8044 28.9646 34.8799C28.9646 35.1956 29.0689 35.6856 29.3565 35.7418C29.9922 35.8662 30.4984 35.8359 30.782 35.6566C30.8506 35.6132 30.9451 35.5265 31.0545 35.4261C31.3153 35.1869 31.6726 34.8592 32.1387 34.6812C32.6981 34.4674 33.2826 34.526 33.8762 34.8554C33.9088 34.8735 33.9326 34.9041 33.9421 34.9402C33.9516 34.9763 33.946 35.0146 33.9266 35.0464C33.5137 35.7235 33.4236 36.0704 33.4228 36.0738C33.4075 36.1363 33.3517 36.178 33.2901 36.178V36.1778Z" fill="black"/>
<path d="M33.1194 39.4479C32.9514 39.4479 32.7827 39.412 32.6422 39.3821C32.6113 39.3756 32.5813 39.3691 32.5526 39.3634C32.274 39.3077 31.5962 38.9924 31.2793 38.3732C31.0153 37.8576 31.4122 37.3447 31.6492 37.0382C31.7066 36.964 31.7609 36.8939 31.7822 36.8527C31.9315 36.5648 32.6714 36.1261 33.242 35.9125C33.5265 35.806 33.6539 35.6859 33.8465 35.5043C34.0276 35.3336 34.253 35.1211 34.6875 34.8347C34.7507 34.7931 34.8356 34.8105 34.8771 34.8736C34.9188 34.9368 34.9013 35.0216 34.8382 35.0632C34.4234 35.3366 34.2076 35.54 34.0342 35.7035C33.833 35.8932 33.6741 36.043 33.3379 36.1688C33.0649 36.271 32.7581 36.424 32.4962 36.5883C32.2026 36.7726 32.0604 36.9108 32.0252 36.9788C31.9924 37.042 31.9365 37.1142 31.8657 37.2057C31.6556 37.4772 31.3382 37.8875 31.5229 38.2483C31.6687 38.5332 31.9051 38.732 32.0777 38.8484C32.2822 38.9865 32.4906 39.0718 32.6063 39.0948C32.636 39.1008 32.6671 39.1074 32.6992 39.1142C32.9251 39.1623 33.2061 39.2222 33.3824 39.1127C33.4467 39.0728 33.531 39.0926 33.5709 39.1568C33.6108 39.2211 33.5911 39.3055 33.5268 39.3454C33.4031 39.4221 33.2615 39.4478 33.1195 39.4478L33.1194 39.4479Z" fill="black"/>
<path d="M31.4012 38.4476C31.3936 38.4476 31.3858 38.4469 31.378 38.4456C31.1952 38.4145 30.9884 38.2889 30.7636 38.0725C30.5713 37.8875 30.4087 37.6774 30.3289 37.5685C30.2064 37.4014 30.1522 37.0723 30.0948 36.7238C30.0507 36.456 30.0052 36.1792 29.9321 36.0075C29.9025 35.9379 29.9349 35.8575 30.0045 35.828C30.074 35.7983 30.1545 35.8308 30.184 35.9003C30.27 36.1023 30.3183 36.3956 30.3649 36.6793C30.4122 36.9667 30.4658 37.2923 30.5496 37.4066C30.8008 37.7491 31.1624 38.1311 31.424 38.1758C31.4985 38.1885 31.5487 38.2593 31.5359 38.3338C31.5244 38.4005 31.4665 38.4477 31.4011 38.4477L31.4012 38.4476Z" fill="black"/>
<path d="M34.2431 40.2475C34.01 40.2475 33.8067 40.1895 33.649 40.0771C33.4644 39.9455 33.3503 39.7482 33.3187 39.5068C33.2745 39.1681 33.4245 38.9017 33.5341 38.7072C33.5693 38.6447 33.6025 38.5858 33.622 38.5372C33.7278 38.2726 34.4205 37.45 34.9428 37.0746C35.0042 37.0305 35.0898 37.0445 35.1339 37.1059C35.178 37.1673 35.164 37.2529 35.1026 37.297C34.5743 37.6767 33.947 38.4619 33.8761 38.639C33.8499 38.7045 33.8123 38.7712 33.7725 38.8418C33.6718 39.0205 33.5577 39.2232 33.5901 39.4716C33.636 39.8241 33.9238 40.0096 34.3598 39.9682C34.8891 39.9178 35.3249 39.8163 35.3293 39.8153C35.4029 39.798 35.4765 39.8437 35.4938 39.9172C35.5111 39.9907 35.4655 40.0645 35.3919 40.0818C35.3736 40.0861 34.9347 40.1885 34.3858 40.2408C34.3371 40.2454 34.2894 40.2477 34.243 40.2477L34.2431 40.2475Z" fill="black"/>
<path d="M35.9793 40.7506C35.5968 40.7506 35.341 40.5316 35.2693 40.1351C35.2081 39.7966 35.3899 39.4464 35.7951 39.1222C35.9635 38.9876 36.494 38.3532 36.6843 38.1201C36.7321 38.0616 36.8184 38.0528 36.877 38.1007C36.9355 38.1485 36.9442 38.2347 36.8964 38.2933C36.8246 38.3814 36.1877 39.1588 35.9661 39.3361C35.7417 39.5156 35.4855 39.7914 35.5388 40.0864C35.5929 40.3855 35.7638 40.5077 36.0765 40.4709C36.1519 40.462 36.4286 40.4097 36.825 40.109C37.2014 39.8235 37.5622 39.4021 37.8685 38.8903C37.9073 38.8254 37.9914 38.8043 38.0562 38.8431C38.1211 38.882 38.1422 38.9661 38.1034 39.0309C37.7746 39.5802 37.4001 40.0164 36.9904 40.3271C36.6811 40.5617 36.3596 40.7133 36.1083 40.7428C36.0638 40.7481 36.0208 40.7506 35.9791 40.7506H35.9793Z" fill="black"/>
</g>
<defs>
<clipPath id="clip0_431_7228">
<rect width="31.8411" height="36" fill="white" transform="translate(8 6)"/>
</clipPath>
</defs>
</svg>
