<svg width="40" height="40" viewBox="0 0 40 40" fill="none" xmlns="http://www.w3.org/2000/svg">
<path d="M20 40C31.0457 40 40 31.0457 40 20C40 8.9543 31.0457 0 20 0C8.9543 0 0 8.9543 0 20C0 31.0457 8.9543 40 20 40Z" fill="#3CEAAA"/>
<path d="M30.3898 15.7069L28.2476 13.5647C27.51 12.8271 26.5295 12.421 25.4865 12.421C24.4434 12.421 23.4629 12.8271 22.7253 13.5647L22.6348 13.6552L20.0126 11.0327C19.275 10.2952 18.2945 9.88904 17.2515 9.88904C16.2084 9.88904 15.2279 10.2952 14.4903 11.0327L9.60855 15.9147C8.87097 16.6523 8.46484 17.6327 8.46484 18.6758C8.46484 19.7189 8.87097 20.6994 9.60855 21.4369L14.5119 26.3403L17.1342 28.9626C17.8718 29.7002 18.8523 30.1063 19.8953 30.1063C20.9384 30.1063 21.9189 29.7002 22.6565 28.9626L25.3827 26.2363L30.39 21.229C31.1276 20.4915 31.5337 19.511 31.5337 18.4679C31.5337 17.4248 31.1276 16.4444 30.39 15.7068L30.3898 15.7069ZM11.6907 18.6758C11.6907 18.5708 11.7165 18.3687 11.8895 18.1957L16.7713 13.3137C16.9444 13.1407 17.1463 13.1148 17.2515 13.1148C17.3566 13.1148 17.5586 13.1407 17.7316 13.3137L20.3539 15.936L18.9347 17.3552L17.7182 18.5716L14.5119 21.7779L11.8897 19.1557C11.7166 18.9826 11.6908 18.7807 11.6908 18.6755L11.6907 18.6758ZM23.1016 23.9553L20.3753 26.6816C20.1107 26.9463 19.6798 26.9463 19.4152 26.6816L16.7929 24.0594L19.9992 20.8531L21.5505 22.4044L23.1018 23.9557L23.1016 23.9553ZM28.1089 18.9481L25.3826 21.6744L22.2802 18.5719L25.0065 15.8457C25.2711 15.581 25.7019 15.581 25.9666 15.8457L28.1089 17.9879C28.3736 18.2526 28.3736 18.6834 28.1089 18.9481Z" fill="#185E44"/>
</svg>
